<?xml version="1.0" encoding="UTF-8" standalone="no"?>
<!-- Generator: Adobe Illustrator 19.0.0, SVG Export Plug-In . SVG Version: 6.00 Build 0)  -->

<svg
   xmlns:dc="http://purl.org/dc/elements/1.1/"
   xmlns:cc="http://creativecommons.org/ns#"
   xmlns:rdf="http://www.w3.org/1999/02/22-rdf-syntax-ns#"
   xmlns:svg="http://www.w3.org/2000/svg"
   xmlns="http://www.w3.org/2000/svg"
   xmlns:sodipodi="http://sodipodi.sourceforge.net/DTD/sodipodi-0.dtd"
   xmlns:inkscape="http://www.inkscape.org/namespaces/inkscape"
   version="1.1"
   id="Capa_1"
   x="0px"
   y="0px"
   viewBox="0 0 512 512"
   style="enable-background:new 0 0 512 512;"
   xml:space="preserve"
   sodipodi:docname="dashboard.svg"
   inkscape:version="0.92.4 (5da689c313, 2019-01-14)"><metadata
   id="metadata61"><rdf:RDF><cc:Work
       rdf:about=""><dc:format>image/svg+xml</dc:format><dc:type
         rdf:resource="http://purl.org/dc/dcmitype/StillImage" /></cc:Work></rdf:RDF></metadata><defs
   id="defs59" /><sodipodi:namedview
   pagecolor="#ffffff"
   bordercolor="#666666"
   borderopacity="1"
   objecttolerance="10"
   gridtolerance="10"
   guidetolerance="10"
   inkscape:pageopacity="0"
   inkscape:pageshadow="2"
   inkscape:window-width="704"
   inkscape:window-height="480"
   id="namedview57"
   showgrid="false"
   inkscape:zoom="0.4609375"
   inkscape:cx="256"
   inkscape:cy="256"
   inkscape:window-x="0"
   inkscape:window-y="0"
   inkscape:window-maximized="0"
   inkscape:current-layer="Capa_1" />
<g
   id="g6">
	<g
   id="g4">
		<path
   d="M432,0h-76c-44.112,0-80,35.888-80,80v76c0,44.112,35.888,80,80,80h76c44.112,0,80-35.888,80-80V80    C512,35.888,476.112,0,432,0z M472,156c0,22.056-17.944,40-40,40h-76c-22.056,0-40-17.944-40-40V80c0-22.056,17.944-40,40-40h76    c22.056,0,40,17.944,40,40V156z"
   id="path2"
   style="fill:#ffffff" />
	</g>
</g>
<g
   id="g12">
	<g
   id="g10">
		<path
   d="M156,0H80C35.888,0,0,35.888,0,80v76c0,44.112,35.888,80,80,80h76c44.112,0,80-35.888,80-80V80    C236,35.888,200.112,0,156,0z M196,156c0,22.056-17.944,40-40,40H80c-22.056,0-40-17.944-40-40V80c0-22.056,17.944-40,40-40h76    c22.056,0,40,17.944,40,40V156z"
   id="path8"
   style="fill:#ffffff" />
	</g>
</g>
<g
   id="g18">
	<g
   id="g16">
		<path
   d="M156,276H80c-44.112,0-80,35.888-80,80v76c0,44.112,35.888,80,80,80h76c44.112,0,80-35.888,80-80v-76    C236,311.888,200.112,276,156,276z M196,432c0,22.056-17.944,40-40,40H80c-22.056,0-40-17.944-40-40v-76c0-22.056,17.944-40,40-40    h76c22.056,0,40,17.944,40,40V432z"
   id="path14"
   style="fill:#ffffff" />
	</g>
</g>
<g
   id="g24">
	<g
   id="g22">
		<path
   d="M492,412c-11.046,0-20,8.954-20,20c0,22.056-17.944,40-40,40h-76c-22.056,0-40-17.944-40-40v-76c0-22.056,17.944-40,40-40    h76c15.905,0,30.301,9.419,36.675,23.996c4.425,10.121,16.218,14.736,26.338,10.312c10.121-4.426,14.737-16.218,10.312-26.338    C492.582,294.829,463.8,276,432,276h-76c-44.112,0-80,35.888-80,80v76c0,44.112,35.888,80,80,80h76c44.112,0,80-35.888,80-80    C512,420.954,503.046,412,492,412z"
   id="path20"
   style="fill:#ffffff" />
	</g>
</g>
<g
   id="g26">
</g>
<g
   id="g28">
</g>
<g
   id="g30">
</g>
<g
   id="g32">
</g>
<g
   id="g34">
</g>
<g
   id="g36">
</g>
<g
   id="g38">
</g>
<g
   id="g40">
</g>
<g
   id="g42">
</g>
<g
   id="g44">
</g>
<g
   id="g46">
</g>
<g
   id="g48">
</g>
<g
   id="g50">
</g>
<g
   id="g52">
</g>
<g
   id="g54">
</g>
</svg>