<?xml version="1.0" encoding="iso-8859-1"?>
<!-- Generator: Adobe Illustrator 19.0.0, SVG Export Plug-In . SVG Version: 6.00 Build 0)  -->
<svg version="1.1" id="Layer_1" xmlns="http://www.w3.org/2000/svg" xmlns:xlink="http://www.w3.org/1999/xlink" x="0px" y="0px"
	 viewBox="0 0 512 512" style="enable-background:new 0 0 512 512;" xml:space="preserve">
<g>
	<g>
		<g>
			<path d="M469.334,170.682h-5.926L390.125,42.709c-5.667-9.895-14.813-16.978-25.792-19.916
				c-4.086-1.086-8.235-1.575-12.341-1.437c-6.886,0.231-13.65,2.183-19.784,5.739L21.146,208.181
				C7.548,216.103-0.067,230.54,0,245.345c0.033,7.151,1.874,14.398,5.667,21.02L64,368.241v79.762
				c0,23.53,19.146,42.665,42.667,42.665h362.667c23.521,0,42.667-19.134,42.667-42.665V213.347
				C512,189.817,492.855,170.682,469.334,170.682z M64,213.334v111.986L24.167,255.75c-5.833-10.198-2.375-23.271,7.729-29.146
				l32.686-19.029C64.322,209.477,64,211.362,64,213.334z M342.959,45.532c4.833-2.833,10.458-3.594,15.854-2.135
				c5.438,1.458,9.979,4.979,12.813,9.916l67.21,117.369H127.98L342.959,45.532z M490.667,448c0,11.76-9.563,21.333-21.333,21.333
				H106.667c-11.771,0-21.333-9.573-21.333-21.333V213.334c0-11.76,9.563-21.333,21.333-21.333h362.667
				c11.771,0,21.333,9.573,21.333,21.333V448z"/>
			<path d="M458.667,362.667h-128c-5.896,0-10.667,4.771-10.667,10.667c0,5.896,4.771,10.667,10.667,10.667h128
				c5.896,0,10.667-4.771,10.667-10.667C469.334,367.438,464.563,362.667,458.667,362.667z"/>
			<path d="M458.667,298.667H288c-5.896,0-10.667,4.771-10.667,10.667c0,5.896,4.771,10.667,10.667,10.667h170.667
				c5.896,0,10.667-4.771,10.667-10.667C469.334,303.438,464.563,298.667,458.667,298.667z"/>
			<path d="M192,341.334c23.521,0,42.667-19.135,42.667-42.667S215.521,256,192,256c-23.521,0-42.667,19.135-42.667,42.667
				S168.48,341.334,192,341.334z M192,277.334c11.771,0,21.333,9.573,21.333,21.333c0,11.76-9.563,21.333-21.333,21.333
				c-11.771,0-21.333-9.573-21.333-21.333C170.667,286.906,180.23,277.334,192,277.334z"/>
			<path d="M255.73,367.719C240.813,360.552,217.667,352,192,352c-25.667,0-48.813,8.552-63.729,15.719
				c-13.333,6.417-21.604,19.219-21.604,33.406V406c0,11.396,9.563,20.667,21.333,20.667h128c11.771,0,21.333-9.271,21.333-20.667
				v-4.875C277.334,386.938,269.063,374.136,255.73,367.719z M256,405.334L128,406v-4.875c0-5.917,3.646-11.354,9.521-14.177
				c12.917-6.208,32.833-13.615,54.479-13.615c21.646,0,41.563,7.406,54.479,13.615c5.875,2.823,9.521,8.26,9.521,14.177V405.334z"
				/>
		</g>
	</g>
</g>
<g>
</g>
<g>
</g>
<g>
</g>
<g>
</g>
<g>
</g>
<g>
</g>
<g>
</g>
<g>
</g>
<g>
</g>
<g>
</g>
<g>
</g>
<g>
</g>
<g>
</g>
<g>
</g>
<g>
</g>
</svg>
