<?xml version="1.0" encoding="UTF-8" standalone="no"?>
<!-- Generator: Adobe Illustrator 19.0.0, SVG Export Plug-In . SVG Version: 6.00 Build 0)  -->

<svg
   xmlns:dc="http://purl.org/dc/elements/1.1/"
   xmlns:cc="http://creativecommons.org/ns#"
   xmlns:rdf="http://www.w3.org/1999/02/22-rdf-syntax-ns#"
   xmlns:svg="http://www.w3.org/2000/svg"
   xmlns="http://www.w3.org/2000/svg"
   xmlns:sodipodi="http://sodipodi.sourceforge.net/DTD/sodipodi-0.dtd"
   xmlns:inkscape="http://www.inkscape.org/namespaces/inkscape"
   version="1.1"
   id="Capa_1"
   x="0px"
   y="0px"
   viewBox="0 0 512 512"
   style="enable-background:new 0 0 512 512;"
   xml:space="preserve"
   sodipodi:docname="profile_setting.svg"
   inkscape:version="0.92.4 (5da689c313, 2019-01-14)"><metadata
   id="metadata47"><rdf:RDF><cc:Work
       rdf:about=""><dc:format>image/svg+xml</dc:format><dc:type
         rdf:resource="http://purl.org/dc/dcmitype/StillImage" /></cc:Work></rdf:RDF></metadata><defs
   id="defs45" /><sodipodi:namedview
   pagecolor="#ffffff"
   bordercolor="#666666"
   borderopacity="1"
   objecttolerance="10"
   gridtolerance="10"
   guidetolerance="10"
   inkscape:pageopacity="0"
   inkscape:pageshadow="2"
   inkscape:window-width="704"
   inkscape:window-height="480"
   id="namedview43"
   showgrid="false"
   inkscape:zoom="0.4609375"
   inkscape:cx="256"
   inkscape:cy="256"
   inkscape:window-x="0"
   inkscape:window-y="0"
   inkscape:window-maximized="0"
   inkscape:current-layer="Capa_1" />
<g
   id="g10"
   style="fill:#ffffff">
	<g
   id="g8"
   style="fill:#ffffff">
		<g
   id="g6"
   style="fill:#ffffff">
			<path
   d="M512,133V93h-35.87c-1.893-7.328-4.815-14.244-8.579-20.605L492.946,47l-28.284-28.284l-25.395,25.395     c-6.551-3.876-13.695-6.847-21.267-8.734V0h-40v35.72c-7.082,1.895-13.775,4.741-19.943,8.391l-25.394-25.395L304.378,47     l25.395,25.395c-3.764,6.361-6.686,13.277-8.579,20.605H285v39.999h36.194c1.893,7.329,4.815,14.244,8.579,20.605L304.378,179     l28.285,28.284l25.394-25.395c6.168,3.65,12.861,6.496,19.943,8.391V226h40v-35.377c7.572-1.887,14.716-4.858,21.267-8.734     l25.395,25.395L492.946,179l-25.394-25.395c3.763-6.361,6.686-13.277,8.579-20.605H512z M398.662,153c-22.056,0-40-17.944-40-40     c0-8.588,2.73-16.546,7.355-23.071l9.575-9.575c6.525-4.625,14.482-7.354,23.07-7.354c22.056,0,40,17.944,40,40     C438.662,135.056,420.718,153,398.662,153z"
   id="path2"
   style="fill:#ffffff" />
			<path
   d="M301.616,303.205c13.398-10.007,24.817-22.526,33.535-36.865l-29.511-29.51C291.322,267.605,260.119,289,224,289     c-49.626,0-90-40.374-90-90c0-49.626,40.374-90,90-90c7.183,0,14.171,0.851,20.872,2.449l0.073-40.753     C238.124,69.586,231.13,69,224,69c-71.682,0-130,58.318-130,130c0,42.31,20.321,79.958,51.711,103.712     c-29.853,11.006-57.227,28.434-80.396,51.603C23.196,396.435,0,452.435,0,512h40c0-100.906,82.093-183,183-183     s183,82.094,183,183h40c0-59.565-23.196-115.565-65.315-157.685C357.859,331.49,330.952,314.236,301.616,303.205z"
   id="path4"
   style="fill:#ffffff" />
		</g>
	</g>
</g>
<g
   id="g12">
</g>
<g
   id="g14">
</g>
<g
   id="g16">
</g>
<g
   id="g18">
</g>
<g
   id="g20">
</g>
<g
   id="g22">
</g>
<g
   id="g24">
</g>
<g
   id="g26">
</g>
<g
   id="g28">
</g>
<g
   id="g30">
</g>
<g
   id="g32">
</g>
<g
   id="g34">
</g>
<g
   id="g36">
</g>
<g
   id="g38">
</g>
<g
   id="g40">
</g>
</svg>